<svg width="84" height="101" viewBox="0 0 84 101" fill="none" xmlns="http://www.w3.org/2000/svg">
<path d="M69.4025 9.71806L69.4034 9.71833C73.4371 11.0609 76.9463 13.6431 79.4321 17.0983C81.9179 20.5536 83.2539 24.7061 83.25 28.9658V28.9665V50.5002C83.25 66.0923 73.7838 78.2541 63.9848 86.6602C54.1971 95.0567 44.1982 99.5993 43.4017 99.9517L43.4002 99.9524C42.9593 100.149 42.4823 100.25 42 100.25C41.5177 100.25 41.0407 100.149 40.5998 99.9524L40.5983 99.9517C39.8018 99.5993 29.8029 95.0567 20.0152 86.6602C10.2162 78.2541 0.750009 66.0923 0.750009 50.5002L0.750009 28.9665L0.750009 28.9658C0.746105 24.7061 2.08209 20.5536 4.56792 17.0983C7.05375 13.6431 10.5629 11.0609 14.5967 9.71833L14.5975 9.71806L40.9102 0.927064C40.9103 0.927038 40.9104 0.927011 40.9105 0.926985C41.6177 0.691006 42.3823 0.691006 43.0895 0.926985C43.0896 0.927011 43.0897 0.927038 43.0898 0.927064L69.4025 9.71806ZM43.7052 100.638C45.36 99.9053 84 82.3274 84 50.5002V28.9665L43.7052 100.638ZM41.6604 92.7845L42.0008 92.9574L42.3409 92.7839C45.8995 90.9682 54.3704 86.2654 61.9619 79.1115C69.5436 71.967 76.35 62.2793 76.35 50.5002V28.9665C76.3497 26.1593 75.4679 23.4233 73.8292 21.1461C72.1905 18.8689 69.8781 17.1658 67.2192 16.2784C67.2192 16.2784 67.2191 16.2784 67.219 16.2784L42.2376 7.93344L42 7.85406L41.7624 7.93344L16.781 16.2784C16.7809 16.2784 16.7808 16.2784 16.7808 16.2784C14.122 17.1658 11.8095 18.8689 10.1708 21.1461C8.53211 23.4233 7.65027 26.1593 7.65001 28.9665V28.9665V50.5002C7.65001 62.3083 14.4538 71.9992 22.0351 79.1385C29.6259 86.2869 38.0972 90.975 41.6604 92.7845Z" fill="white" stroke="#25335D" stroke-width="1.5"/>
<path d="M38.3888 53.0791L38.9123 53.6094L39.446 53.0894L57.2431 35.7492C57.2432 35.7491 57.2434 35.749 57.2435 35.7489C57.5693 35.4331 57.9571 35.1817 58.3852 35.0099C58.8136 34.838 59.2733 34.7495 59.738 34.75C60.2026 34.7505 60.6622 34.8399 61.0901 35.0126C61.5181 35.1854 61.9054 35.4377 62.2306 35.7543C62.5557 36.0709 62.8123 36.4454 62.9868 36.8558L63.677 36.5624L62.9868 36.8558C63.1612 37.2662 63.2505 37.7052 63.25 38.1479C63.2495 38.5906 63.1593 39.0294 62.984 39.4395C62.8086 39.8496 62.5512 40.2236 62.2253 40.5395L62.2248 40.54L44.0693 58.1787L44.0675 58.1805C43.3955 58.8377 42.5947 59.3598 41.7109 59.7155C40.8271 60.0712 39.8786 60.253 38.9208 60.25H38.9184H38.7838C37.8083 60.2347 36.8467 60.0278 35.957 59.6422C35.0657 59.2559 34.2658 58.6986 33.605 58.0052L33.6051 58.0051L33.5953 57.9952L23.7951 48.0858L23.7883 48.079L23.7814 48.0723C23.4503 47.7543 23.1893 47.3762 23.0126 46.9612C22.836 46.5461 22.7469 46.1017 22.7501 45.654C22.7533 45.2062 22.8486 44.7631 23.0312 44.3503C23.2137 43.9376 23.4802 43.563 23.8159 43.2493C24.1516 42.9356 24.5498 42.6892 24.9875 42.5257C25.4252 42.3623 25.8928 42.2854 26.3626 42.3C26.8323 42.3146 27.2937 42.4204 27.7194 42.6106C28.1451 42.8007 28.5258 43.0711 28.8398 43.4046L28.8459 43.4111L28.8521 43.4174L38.3888 53.0791Z" fill="white" stroke="#25335D" stroke-width="1.5"/>
</svg>
