<svg width="260" height="260" viewBox="0 0 260 260" fill="none" xmlns="http://www.w3.org/2000/svg">
<g clip-path="url(#clip0_202_1804)">
<rect width="260" height="260" rx="130" fill="white"/>
<circle cx="130" cy="130" r="130" fill="#DEF4FF"/>
<path d="M229.398 180.672C238.342 158.832 223.808 156.596 208.676 145.312C193.544 134.028 218.192 129.192 223.236 117.596C228.28 106 219.31 97.8355 208.13 91.6735C196.924 85.5115 180.648 61.5395 180.648 61.5395L179.92 61.2015C188.37 78.1535 188.006 97.5235 187.876 100.41C190.58 100.566 195.624 101.684 196.248 108.08C197.08 116.842 194.142 123.576 188.682 126.488C188.682 126.488 187.642 126.956 185.432 127.398C178.646 155.062 158.444 175.16 134.55 175.16C110.656 175.16 90.4278 155.062 83.6678 127.346V127.528C80.9898 127.06 79.8198 126.488 79.8198 126.488C74.3598 123.576 71.4218 116.842 72.2538 108.08C72.9038 101.164 78.7798 100.41 81.2238 100.384C81.1718 98.7715 81.0418 92.2455 82.2898 83.9255C78.1558 85.9535 65.7538 92.6615 65.9878 100.384C66.2998 109.666 68.9518 122.406 57.0178 125.864C45.0838 129.322 44.6678 151.552 49.6858 162.836C54.7038 174.12 58.0838 181.218 42.3278 188.108C26.5718 194.998 44.0958 208.102 42.4058 233.27C40.7158 258.438 63.6738 247.284 109.382 238.886C155.09 230.488 187.928 241.694 212.576 238.886C237.198 236.078 234.416 228.278 225.446 216.682C216.476 205.086 220.402 202.512 229.372 180.672H229.398Z" fill="#441D39"/>
<path d="M142.168 43.5494L179.946 61.2034C172.848 46.9814 159.536 34.4494 134.576 34.7874C96.1484 34.2414 85.3064 64.2194 82.3164 83.9274C83.1484 83.5114 83.6684 83.2774 83.6684 83.2774L142.168 43.5234V43.5494Z" fill="#C1735C"/>
<path d="M234.442 228.282C212.914 221.028 159.12 193.182 159.12 193.182H105.638C105.638 193.182 51.8697 221.028 30.3157 228.282C8.78766 235.536 8.78766 272.3 8.78766 272.3H255.996C255.996 272.3 255.996 235.536 234.468 228.282H234.442Z" fill="#4598C4"/>
<path d="M155.818 167.751H108.68L105.17 197.235L132.886 256.645L159.458 195.675L155.818 167.751Z" fill="#C1735C"/>
<path d="M108.757 166.608L106.651 184.756C106.651 184.756 143.181 188.11 156.051 172.094V169.364C149.473 173.082 142.219 175.162 134.549 175.162C125.189 175.162 116.401 172.042 108.757 166.608Z" fill="#A5503C"/>
<path d="M196.273 108.082C195.675 101.686 190.605 100.568 187.901 100.412C188.005 97.526 188.395 78.156 179.945 61.204L142.167 43.55L83.6672 83.304C83.6672 83.304 83.1472 83.538 82.3152 83.954C81.0412 92.274 81.1712 98.8 81.2492 100.412C78.8052 100.412 72.9292 101.192 72.2792 108.108C71.4472 116.87 74.3852 123.604 79.8452 126.516C79.8452 126.516 81.0152 127.088 83.6932 127.556V127.374C87.8012 144.222 96.9012 158.236 108.783 166.634C116.427 172.068 125.215 175.188 134.575 175.188C142.219 175.188 149.499 173.108 156.077 169.39C170.039 161.512 180.855 146.224 185.457 127.426C187.693 126.984 188.707 126.516 188.707 126.516C194.167 123.604 197.105 116.87 196.273 108.108V108.082Z" fill="#C1735C"/>
<path d="M97.8635 92.1453C106.782 91.5213 114.374 93.6013 118.222 94.7713C119.392 95.1353 120.614 94.6673 121.108 93.7573C121.628 92.6913 120.978 91.4693 119.678 91.0533C115.31 89.7013 107.406 87.5433 98.6435 89.5973C97.2915 89.9093 94.8735 90.9233 95.4455 92.0413C95.7835 92.4313 96.6935 92.2493 97.8635 92.1713V92.1453Z" fill="#441D39"/>
<path d="M171.781 92.5854C162.889 91.5974 155.245 93.3914 151.345 94.4314C150.175 94.7434 148.953 94.2494 148.511 93.2874C148.017 92.1954 148.719 90.9734 150.045 90.6354C154.465 89.4394 162.447 87.5934 171.131 89.9854C172.457 90.3494 174.849 91.4674 174.225 92.5594C173.861 92.9494 172.977 92.7154 171.807 92.5594L171.781 92.5854Z" fill="#441D39"/>
<path d="M159.771 112.422C161.508 112.422 162.917 109.977 162.917 106.962C162.917 103.946 161.508 101.502 159.771 101.502C158.033 101.502 156.625 103.946 156.625 106.962C156.625 109.977 158.033 112.422 159.771 112.422Z" fill="#441D39"/>
<path d="M112.58 111.304C114.317 111.304 115.726 108.86 115.726 105.844C115.726 102.829 114.317 100.384 112.58 100.384C110.842 100.384 109.434 102.829 109.434 105.844C109.434 108.86 110.842 111.304 112.58 111.304Z" fill="#441D39"/>
<path d="M138.267 131.507H133.301C131.091 131.507 129.141 130.649 128.101 129.219C127.347 128.205 127.139 127.009 127.503 125.839C128.647 122.121 129.609 118.559 129.609 118.533C129.791 117.831 130.493 117.441 131.195 117.623C131.897 117.805 132.313 118.533 132.105 119.209C132.105 119.209 131.143 122.823 129.973 126.593C129.869 126.983 129.921 127.321 130.181 127.685C130.727 128.439 131.949 128.907 133.301 128.907H138.267C138.995 128.907 139.567 129.479 139.567 130.207C139.567 130.935 138.995 131.507 138.267 131.507Z" fill="#A5503C"/>
<path d="M133.511 147.862C127.453 147.862 122.851 147.03 122.513 146.952C121.811 146.822 121.343 146.146 121.473 145.444C121.603 144.742 122.279 144.274 122.981 144.404C123.111 144.404 137.619 147.082 148.955 142.844C149.631 142.584 150.385 142.922 150.619 143.598C150.879 144.274 150.515 145.028 149.865 145.262C144.431 147.29 138.477 147.862 133.485 147.862H133.511Z" fill="#A5503C"/>
<path d="M162.37 120.977C167.381 120.977 171.444 120.046 171.444 118.897C171.444 117.748 167.381 116.817 162.37 116.817C157.358 116.817 153.296 117.748 153.296 118.897C153.296 120.046 157.358 120.977 162.37 120.977Z" fill="#AF5D4E"/>
<path d="M109.433 120.977C114.444 120.977 118.507 120.046 118.507 118.897C118.507 117.748 114.444 116.817 109.433 116.817C104.422 116.817 100.359 117.748 100.359 118.897C100.359 120.046 104.422 120.977 109.433 120.977Z" fill="#AF5D4E"/>
<path d="M79.3508 85.6432L79.5068 86.8652L72.1228 94.5352L66.4548 111.305C66.4548 111.305 73.0848 132.807 82.5228 146.145C91.9348 159.509 87.6448 139.333 83.6668 127.321C79.6888 115.309 87.1248 115.153 88.8668 106.963C89.9588 101.789 88.0348 97.0312 86.4748 94.2492C85.0968 89.4912 86.3188 83.7712 92.8448 82.0032C108.133 77.8172 98.1228 52.4672 98.1228 52.4672C89.3348 58.1092 81.6908 80.8852 79.3768 85.6172L79.3508 85.6432Z" fill="#441D39"/>
<path d="M196.403 94.5351L190.995 94.9511C188.785 83.5371 183.923 61.0211 179.529 58.6811C173.601 55.5351 166.867 60.6571 166.867 60.6571C166.867 60.6571 170.247 79.0911 177.657 83.2511C182.051 85.7211 182.025 91.2851 182.129 95.3931C179.581 108.679 172.977 123.447 187.875 136.785C204.125 151.319 207.635 112.423 207.635 112.423L196.403 94.5351Z" fill="#441D39"/>
<path d="M188.292 38.9504C179.894 24.9884 147.602 18.0724 120.718 23.5584L118.924 17.5004C118.586 16.3824 117.416 15.7324 116.272 16.0704C115.154 16.4084 114.504 17.5784 114.842 18.7224L116.558 24.5724C95.7844 30.0064 74.1524 45.4764 64.6624 64.9244C54.8864 84.9444 79.5344 85.3864 79.5344 85.3864C100.516 53.7444 180.648 61.5444 180.648 61.5444C185.302 60.5564 196.924 53.3544 188.266 38.9764L188.292 38.9504Z" fill="#FF7C59"/>
<path d="M93.262 215.176C92.768 215.176 92.3 214.916 92.092 214.448C91.78 213.798 92.066 213.018 92.69 212.706L102.492 208C103.142 207.688 103.922 207.974 104.234 208.624C104.546 209.274 104.26 210.054 103.636 210.366L93.834 215.072C93.652 215.15 93.47 215.202 93.262 215.202V215.176Z" fill="#2A5E70"/>
<path d="M97.7332 230.644C97.2392 230.644 96.7712 230.384 96.5632 229.916C96.2512 229.266 96.5372 228.486 97.1612 228.174L106.963 223.468C107.613 223.156 108.393 223.442 108.705 224.066C109.017 224.69 108.731 225.496 108.107 225.808L98.3052 230.514C98.1232 230.592 97.9412 230.644 97.7332 230.644Z" fill="#2A5E70"/>
<path d="M103.428 248.925C102.934 248.925 102.466 248.665 102.258 248.197C101.946 247.547 102.232 246.767 102.856 246.455L112.658 241.749C113.308 241.437 114.088 241.723 114.4 242.347C114.712 242.997 114.426 243.777 113.802 244.089L104 248.795C103.818 248.873 103.636 248.925 103.428 248.925Z" fill="#2A5E70"/>
<path d="M169.754 215.176C169.572 215.176 169.364 215.124 169.182 215.046L159.38 210.34C158.73 210.028 158.47 209.248 158.782 208.598C159.094 207.948 159.874 207.662 160.524 207.974L170.326 212.68C170.976 212.992 171.236 213.772 170.924 214.422C170.69 214.89 170.248 215.15 169.754 215.15V215.176Z" fill="#2A5E70"/>
<path d="M165.283 230.644C165.101 230.644 164.893 230.592 164.711 230.514L154.909 225.808C154.259 225.496 153.999 224.716 154.311 224.066C154.623 223.416 155.403 223.155 156.053 223.467L165.855 228.174C166.505 228.486 166.765 229.266 166.453 229.916C166.219 230.384 165.777 230.644 165.283 230.644Z" fill="#2A5E70"/>
<path d="M159.588 248.925C159.406 248.925 159.198 248.873 159.016 248.795L149.214 244.089C148.564 243.777 148.304 242.997 148.616 242.347C148.928 241.697 149.708 241.437 150.358 241.749L160.16 246.455C160.81 246.767 161.07 247.547 160.758 248.197C160.524 248.665 160.082 248.925 159.588 248.925Z" fill="#2A5E70"/>
</g>
<defs>
<clipPath id="clip0_202_1804">
<rect width="260" height="260" rx="130" fill="white"/>
</clipPath>
</defs>
</svg>
