<svg width="260" height="260" viewBox="0 0 260 260" fill="none" xmlns="http://www.w3.org/2000/svg">
<g clip-path="url(#clip0_202_1811)">
<rect width="260" height="260" rx="130" fill="white"/>
<circle cx="130" cy="130" r="130" fill="#DEF4FF"/>
<path d="M104.651 34.841C104.651 34.841 73.2689 41.627 75.5569 82.837C77.8449 124.047 70.4869 135.669 70.4869 135.669L78.5469 133.433L104.625 151.295L174.929 137.229L185.953 140.505L189.359 132.809C189.359 132.809 193.233 136.969 197.081 137.203C197.081 137.203 193.493 118.691 194.169 110.423C195.599 93.107 187.279 67.913 187.279 67.913L104.599 34.841H104.651Z" fill="#441D39"/>
<path d="M233.455 228.281C215.723 222.327 176.177 202.411 162.735 195.547C161.695 195.027 160.837 194.559 160.135 194.221C158.887 193.571 158.159 193.207 158.159 193.207H104.677C104.677 193.207 103.975 193.571 102.701 194.221C101.999 194.585 101.115 195.027 100.101 195.547C98.1253 196.561 95.6033 197.835 92.6653 199.317C75.5313 207.949 44.5133 223.211 29.3813 228.281C7.8533 235.535 7.8533 272.299 7.8533 272.299H254.983C254.983 272.299 254.983 235.535 233.455 228.281V228.281Z" fill="#FDEBD9"/>
<path d="M154.804 167.751H107.692L104.65 193.179C104.65 198.171 116.636 202.227 131.404 202.227C146.172 202.227 158.158 198.171 158.158 193.179L154.83 167.751H154.804Z" fill="#C1735C"/>
<path d="M87.125 79.5586C87.125 79.5586 88.841 65.5706 100.697 62.9706C100.697 62.9706 184.079 62.9706 167.361 62.9706C167.361 62.9706 178.203 62.9706 180.465 78.5706C180.803 80.9106 184.261 104.909 184.053 114.347C183.923 120.405 186.289 117.207 186.289 117.207C186.289 117.207 188.837 107.535 189.253 94.8466C190.033 70.6666 186.887 29.0926 135.901 29.0926C84.915 29.0926 80.209 59.6946 80.209 99.1626L82.081 118.585C82.159 119.365 82.809 119.937 83.589 119.937C85.071 119.937 87.099 79.5586 87.099 79.5586H87.125Z" fill="#C1735C"/>
<path d="M178.698 74.5142C179.689 74.5142 180.492 73.711 180.492 72.7202C180.492 71.7294 179.689 70.9262 178.698 70.9262C177.707 70.9262 176.904 71.7294 176.904 72.7202C176.904 73.711 177.707 74.5142 178.698 74.5142Z" fill="#FF9988"/>
<path d="M105.663 184.754C105.663 184.754 142.193 188.108 155.063 172.092V153.684L108.757 158.13L105.663 184.754V184.754Z" fill="#A5503C"/>
<path fill-rule="evenodd" clip-rule="evenodd" d="M135.246 175.136C159.971 175.136 180.765 153.658 186.803 124.521C187.927 124.216 188.44 123.966 188.44 123.966C193.9 121.058 196.838 114.335 196.006 105.586C195.432 99.5485 190.871 98.2092 188.099 97.9589C184.611 64.673 162.278 39 135.246 39C107.657 39 84.9618 65.7431 82.202 100.028C80.8928 100.005 73.1057 100.204 72.82 108.264C72.508 117.064 75.862 123.581 81.478 126.151C81.478 126.151 82.3218 126.499 84.1941 126.795C90.8193 154.768 111.169 175.136 135.246 175.136Z" fill="#C1735C"/>
<path d="M158.755 112.422C160.492 112.422 161.901 109.977 161.901 106.962C161.901 103.946 160.492 101.502 158.755 101.502C157.018 101.502 155.609 103.946 155.609 106.962C155.609 109.977 157.018 112.422 158.755 112.422Z" fill="#441D39"/>
<path d="M111.567 111.304C113.304 111.304 114.713 108.86 114.713 105.844C114.713 102.829 113.304 100.384 111.567 100.384C109.829 100.384 108.421 102.829 108.421 105.844C108.421 108.86 109.829 111.304 111.567 111.304Z" fill="#441D39"/>
<path d="M137.254 131.506H132.288C130.078 131.506 128.128 130.648 127.088 129.244C126.334 128.23 126.126 127.034 126.49 125.864C127.608 122.224 129.142 112.344 129.168 112.24C129.272 111.538 129.948 111.07 130.65 111.148C131.352 111.252 131.846 111.928 131.742 112.63C131.69 113.046 130.156 122.822 128.986 126.618C128.882 126.982 128.934 127.346 129.194 127.71C129.74 128.464 130.962 128.932 132.314 128.932H137.28C138.008 128.932 138.58 129.504 138.58 130.232C138.58 130.96 138.008 131.532 137.28 131.532L137.254 131.506Z" fill="#A5503C"/>
<path d="M161.537 120.977C166.549 120.977 170.611 120.046 170.611 118.897C170.611 117.748 166.549 116.817 161.537 116.817C156.526 116.817 152.463 117.748 152.463 118.897C152.463 120.046 156.526 120.977 161.537 120.977Z" fill="#AF5D4E"/>
<path d="M108.577 120.977C113.589 120.977 117.651 120.046 117.651 118.897C117.651 117.748 113.589 116.817 108.577 116.817C103.566 116.817 99.5033 117.748 99.5033 118.897C99.5033 120.046 103.566 120.977 108.577 120.977Z" fill="#AF5D4E"/>
<path d="M169.937 93.6787C161.149 91.6767 154.623 93.6787 150.645 94.4587C148.955 94.7967 148.435 92.6907 148.435 92.6907C148.019 91.2867 149.865 90.1687 151.217 89.8567C155.715 88.7387 161.487 87.9587 170.275 90.4287C171.965 90.8967 172.147 92.3007 172.147 92.3007C172.043 93.8607 171.081 93.9647 169.937 93.6787V93.6787Z" fill="#441D39"/>
<path d="M99.8408 93.3119C108.707 91.6479 115.155 93.9359 119.107 94.8459C120.797 95.2359 121.369 93.1819 121.369 93.1819C121.837 91.8039 120.043 90.6079 118.717 90.2179C114.271 88.9439 108.525 87.9299 99.6328 90.0359C97.9168 90.4519 97.6828 91.8299 97.6828 91.8299C97.7088 93.3899 98.6708 93.5199 99.8408 93.3119V93.3119Z" fill="#441D39"/>
<path d="M133.303 151.266C127.141 151.266 122.279 149.966 121.941 149.888C121.239 149.706 120.849 148.978 121.031 148.302C121.213 147.6 121.941 147.21 122.617 147.392C122.747 147.418 134.707 150.59 144.353 146.82C145.029 146.56 145.783 146.898 146.043 147.548C146.303 148.224 145.965 148.978 145.315 149.238C141.337 150.798 137.073 151.292 133.303 151.292V151.266Z" fill="#A5503C"/>
<path d="M171.939 33.5159C136.267 5.30589 104.651 34.8419 104.651 34.8419C73.373 40.5619 77.819 86.7379 78.573 91.6779C79.327 96.5919 80.289 99.9979 80.289 99.9979C80.965 100.024 81.589 99.9979 82.187 99.8679L84.839 118.9C85.021 119.576 86.035 119.628 86.269 118.9C86.503 118.64 87.231 107.512 87.933 95.8899C93.861 87.1279 93.601 66.6139 104.651 57.4359C110.059 52.9379 117.651 56.4739 117.651 56.4739C117.651 56.4739 123.319 46.4639 136.813 52.2879C148.955 57.5139 163.879 90.4559 180.337 98.2819C180.987 108.994 181.637 118.666 181.845 118.926C182.079 119.654 183.093 119.602 183.275 118.926L185.927 99.9199L193.467 95.9939C193.467 95.9939 196.873 49.0899 171.887 33.5419L171.939 33.5159Z" fill="#441D39"/>
<path d="M233.454 228.282C224.094 225.136 208.65 218.09 194.168 211.148L153.764 225.474V264.136H151.164V226.384L142.792 229.348V272.274H254.982C254.982 272.274 254.982 235.51 233.454 228.256V228.282Z" fill="#4598C4"/>
<path d="M174.824 196.042C162.032 191.648 142.792 229.348 142.792 229.348L151.164 226.384V264.136H153.764V225.474L194.168 211.148L194.324 211.096C194.324 211.096 187.642 200.436 174.85 196.042H174.824Z" fill="#2B7FA5"/>
<path d="M112.346 226.563L106.34 263.093L103.766 262.677L109.85 225.679L68.718 211.093C54.21 218.061 38.714 225.133 29.328 228.279C7.79999 235.533 7.79999 272.297 7.79999 272.297H119.678L120.25 229.371L112.346 226.563V226.563Z" fill="#4598C4"/>
<path d="M88.2191 196.041C75.4531 200.409 68.7711 211.043 68.7451 211.095L109.877 225.681L103.793 262.679L106.367 263.095L112.373 226.565L120.277 229.373C120.277 229.373 101.011 191.673 88.2451 196.067L88.2191 196.041Z" fill="#2B7FA5"/>
</g>
<defs>
<clipPath id="clip0_202_1811">
<rect width="260" height="260" rx="130" fill="white"/>
</clipPath>
</defs>
</svg>
