<svg width="1512" height="859" viewBox="0 0 1512 859" fill="none" xmlns="http://www.w3.org/2000/svg">
<path d="M238.633 109.083C238.633 112.685 234.246 114.452 231.749 111.856L215.906 95.3779L195.746 75.8902C193.16 73.3907 194.93 69.0143 198.526 69.0143L234.633 69.0143C236.842 69.0143 238.633 70.8051 238.633 73.0143L238.633 109.083Z" fill="#4168F6"/>
<path d="M335 707.04C335 703.438 330.613 701.671 328.117 704.268L312.273 720.745L292.113 740.233C289.527 742.733 291.297 747.109 294.893 747.109H331C333.209 747.109 335 745.318 335 743.109V707.04Z" fill="#78BFB1"/>
<path d="M1385.24 172.859C1385.24 176.461 1389.63 178.228 1392.12 175.632L1407.97 159.154L1428.13 139.666C1430.71 137.167 1428.94 132.791 1425.35 132.791H1389.24C1387.03 132.791 1385.24 134.581 1385.24 136.791V172.859Z" fill="#F7806B"/>
<path d="M2.55672 236.817L-14.488 218.807C-20.4077 212.552 -30.3669 212.554 -36.2831 218.813L-54.8652 238.47" stroke="#F7806B" stroke-width="6"/>
<path d="M45.8291 218.872L26.6446 239.194C20.7377 245.451 10.7887 245.467 4.86208 239.228L-12.7285 220.712" stroke="#F7806B" stroke-width="6"/>
<path d="M84.7481 236.817L67.7034 218.807C61.7837 212.552 51.8245 212.554 45.9083 218.813L27.3262 238.47" stroke="#F7806B" stroke-width="6"/>
<path d="M128.021 218.872L108.836 239.194C102.929 245.451 92.9801 245.467 87.0535 239.228L69.4629 220.712" stroke="#F7806B" stroke-width="6"/>
<path d="M149.895 218.807L147.716 220.869L149.895 218.807ZM164.761 238.879C165.899 240.083 167.798 240.135 169.002 238.996C170.205 237.857 170.257 235.959 169.118 234.755L164.761 238.879ZM128.1 218.813L125.92 216.752L128.1 218.813ZM147.716 220.869L164.761 238.879L169.118 234.755L152.074 216.745L147.716 220.869ZM111.698 240.53L130.28 220.874L125.92 216.752L107.337 236.409L111.698 240.53ZM152.074 216.745C144.97 209.238 133.019 209.242 125.92 216.752L130.28 220.874C135.013 215.867 142.98 215.865 147.716 220.869L152.074 216.745Z" fill="#F7806B"/>
<circle cx="1340.46" cy="665.109" r="6" fill="#25335D"/>
<circle cx="1372.46" cy="665.109" r="6" fill="#78BFB1"/>
<circle cx="1404.46" cy="665.109" r="6" fill="#25335D"/>
<circle cx="1340.46" cy="697.109" r="6" fill="#F7806B"/>
<circle cx="1372.46" cy="697.109" r="6" fill="#25335D"/>
<circle cx="1404.46" cy="697.109" r="6" fill="#25335D"/>
<circle cx="-0.537109" cy="374.5" r="6" fill="#25335D"/>
<circle cx="31.4629" cy="374.5" r="6" fill="#25335D"/>
<circle cx="63.4629" cy="374.5" r="6" fill="#78BFB1"/>
<circle cx="-0.537109" cy="406.5" r="6" fill="#F7806B"/>
<circle cx="31.4629" cy="406.5" r="6" fill="#25335D"/>
<circle cx="63.4629" cy="406.5" r="6" fill="#25335D"/>
<circle cx="1340.46" cy="729.109" r="6" fill="#25335D"/>
<circle cx="1372.46" cy="729.109" r="6" fill="#25335D"/>
<circle cx="1404.46" cy="729.109" r="6" fill="#F7806B"/>
<rect x="1191" y="0.140381" width="91.7656" height="50.7649" rx="10" fill="#25335D"/>
<path d="M1191 38.7964C1191 35.4827 1193.69 32.7964 1197 32.7964H1217.65C1223.25 32.7964 1225.8 39.7895 1221.51 43.3911L1213.02 50.5207L1200.86 60.7349C1196.95 64.0133 1191 61.238 1191 56.1402V38.7964Z" fill="#25335D"/>
<rect x="1191" y="39.7034" width="3.17969" height="7.08185" fill="#25335D"/>
<path d="M1410.46 512.529L1393.43 494.524C1387.5 488.267 1377.54 488.272 1371.63 494.535L1348.52 519" stroke="#4168F6" stroke-width="6"/>
<path d="M1453.74 494.583L1434.56 514.906C1428.65 521.163 1418.7 521.179 1412.78 514.94L1395.19 496.424" stroke="#4168F6" stroke-width="6"/>
<path d="M1492.66 512.529L1475.62 494.518C1469.7 488.263 1459.74 488.266 1453.82 494.524L1435.24 514.181" stroke="#4168F6" stroke-width="6"/>
<path d="M1535.93 494.583L1516.75 514.906C1510.84 521.163 1500.89 521.179 1494.97 514.94L1477.38 496.424" stroke="#4168F6" stroke-width="6"/>
<path d="M1194.75 859C1194.75 859 1170.38 859 1140.33 859C1110.27 859 1085.91 859 1085.91 859C1085.91 828.945 1110.27 804.581 1140.33 804.581C1170.38 804.581 1194.75 828.945 1194.75 859Z" fill="#25335D"/>
<path d="M69.2847 859C69.2847 859 38.2649 859 5.18977e-05 859C5.18977e-05 820.735 -4.71685e-05 789.718 5.18977e-05 789.715C38.2649 789.715 69.2847 820.735 69.2847 859Z" fill="#F7806B"/>
<rect x="235" y="542.422" width="50" height="53.9034" rx="10" fill="#D9D9D9"/>
<path d="M252.326 520.512C253.467 519.485 255.199 519.485 256.34 520.512L275.079 537.376C277.123 539.215 275.822 542.606 273.073 542.606H235.593C232.844 542.606 231.543 539.215 233.587 537.376L252.326 520.512Z" fill="#D9D9D9"/>
</svg>
