<svg width="107" height="107" viewBox="0 0 107 107" fill="none" xmlns="http://www.w3.org/2000/svg">
<path d="M58.9243 86.0401L59.7822 86.2807L60.1197 85.4561C61.2113 82.7898 63.0708 80.5082 65.4621 78.9012C67.8534 77.2942 70.6684 76.4343 73.5495 76.431C76.2971 76.4313 78.9883 77.2107 81.3108 78.6787C83.6337 80.1469 85.4926 82.2437 86.6718 84.7258C87.851 87.2079 88.3022 89.9736 87.9729 92.7018C87.6437 95.4299 86.5475 98.0088 84.8117 100.139C83.0758 102.269 80.7715 103.864 78.166 104.737C75.5605 105.611 72.7608 105.727 70.0916 105.074C67.4225 104.42 64.9935 103.023 63.0864 101.045C61.1793 99.066 59.8724 96.5873 59.3173 93.8959L59.2042 93.3477L58.6777 93.1574C57.0518 92.5699 55.3439 92.2401 53.6161 92.18L53.5812 92.1788L53.5463 92.18C51.8187 92.2406 50.1111 92.5703 48.4852 93.1573L47.9576 93.3478L47.8451 93.8974C47.1481 97.302 45.2518 100.343 42.5014 102.467C39.7509 104.592 36.3292 105.658 32.859 105.471C29.3887 105.285 26.1007 103.859 23.5935 101.452C21.0863 99.0459 19.5265 95.8192 19.198 92.3595C18.8696 88.8998 19.7944 85.4373 21.804 82.602C23.8136 79.7668 26.7745 77.7474 30.1477 76.9114C33.5208 76.0754 37.0821 76.4785 40.1831 78.0472C43.2841 79.6159 45.7188 82.2459 47.0439 85.4586L47.3828 86.2801L48.2384 86.0401C51.733 85.0602 55.4297 85.0602 58.9243 86.0401ZM87.977 39.5292L88.0056 40.2639L88.7153 40.4557C94.56 42.0355 98.8796 43.9417 101.718 46.1226C104.534 48.2858 105.827 50.66 105.827 53.2454C105.827 56.2842 104.03 58.8768 100.73 61.0987C97.4238 63.3244 92.7522 65.0706 87.3796 66.402C76.6488 69.0612 63.4262 69.9939 53.5813 69.9939C43.7364 69.9939 30.5139 69.0612 19.7831 66.402C14.4104 65.0706 9.73884 63.3244 6.43298 61.0987C3.13283 58.8768 1.33594 56.2842 1.33594 53.2454C1.33594 50.66 2.62881 48.2858 5.44441 46.1226C8.28304 43.9417 12.6027 42.0355 18.4474 40.4557L19.1571 40.2639L19.1857 39.5292C19.9383 20.1871 25.1847 10.6006 30.156 5.84169C35.0385 1.16777 39.8078 1.0045 40.2499 1.00011C44.9907 1.21639 49.4868 3.16787 52.8827 6.48374L53.5812 7.16579L54.2798 6.48385C57.6762 3.1686 62.1722 1.21719 66.9128 1.00011C67.3554 1.00452 72.1245 1.16803 77.0067 5.84169C81.9779 10.6006 87.2244 20.1871 87.977 39.5292ZM40.2212 7.87423L40.1837 8.87952C40.0828 8.89446 39.7834 8.94635 39.3388 9.09865C39.2939 9.02172 39.254 8.93898 39.2216 8.8504C39.4273 8.26641 39.9804 7.90372 40.0238 7.89395C40.0388 7.89105 40.0609 7.88722 40.0678 7.88614L40.0805 7.88425C40.0849 7.88363 40.0901 7.88296 40.0833 7.88385C40.0759 7.88483 40.0631 7.88654 40.0461 7.889C40.0124 7.8939 39.966 7.90122 39.9078 7.91195C39.7917 7.93337 39.6308 7.96798 39.4316 8.02319C39.0331 8.13365 38.4825 8.32612 37.8298 8.65906C36.5202 9.32712 34.8219 10.5495 33.123 12.7696C29.7311 17.2022 26.3856 25.5434 25.9944 41.2669L25.9748 42.0562L26.738 42.2584C35.4901 44.5779 44.5303 45.6263 53.5809 45.3716C62.6301 45.6335 71.6698 44.588 80.4204 42.2673L81.1833 42.0649L81.1638 41.276C80.7749 25.5508 77.4296 17.2055 74.0128 12.7699C70.5907 8.32738 67.1434 7.87423 66.7596 7.87423H66.7119L66.6644 7.87877C64.5379 8.08209 62.5001 8.83217 60.7492 10.0561C59.0012 11.278 57.5985 12.9308 56.677 14.8541L53.5838 21.0026L50.5084 14.8552C49.5713 12.8978 48.1347 11.222 46.3432 9.99692C44.5492 8.7701 42.463 8.03881 40.2956 7.87701L40.2937 7.90237C40.255 7.88378 40.2292 7.87442 40.2212 7.87423ZM8.2539 53.0633L8.09924 53.4535L8.26944 53.8372C8.54042 54.4481 9.12507 54.9761 9.7769 55.4281C10.4634 55.9041 11.3686 56.3925 12.4653 56.8803C14.6622 57.8576 17.7209 58.8737 21.5565 59.7947C29.2333 61.638 40.1023 63.1196 53.5813 63.1196C67.0597 63.1196 77.931 61.6382 85.6118 59.7467C89.4491 58.8018 92.513 57.7489 94.716 56.7146C95.8159 56.1982 96.7259 55.675 97.4165 55.1562C98.0811 54.657 98.6531 54.0808 98.9104 53.4234L99.1806 52.7327L98.5981 52.2736C95.2751 49.6546 91.3555 47.8987 87.189 47.1624L86.8635 47.1049L86.5678 47.2527L86.1892 47.4421L86.1841 47.4446C86.1837 47.4448 86.1834 47.4449 86.1831 47.4451C85.8036 47.6291 76.2608 52.2454 53.5813 52.2454C30.8582 52.2454 21.3196 47.6113 20.9814 47.446C20.9805 47.4455 20.9796 47.4451 20.9788 47.4447L20.9773 47.444L20.5949 47.2527L20.2535 47.082L19.8852 47.1822C15.8228 48.2873 13.0731 49.454 11.2803 50.4619C10.3846 50.9654 9.7157 51.4361 9.23814 51.8489C8.79543 52.2316 8.41871 52.6475 8.2539 53.0633ZM29.361 97.3263C30.62 98.1676 32.1002 98.6166 33.6143 98.6166C35.6447 98.6166 37.592 97.81 39.0277 96.3743C40.4634 94.9385 41.27 92.9913 41.27 90.9609C41.27 89.4467 40.821 87.9666 39.9798 86.7076C39.1386 85.4487 37.9429 84.4674 36.544 83.888C35.1451 83.3085 33.6058 83.1569 32.1208 83.4523C30.6357 83.7477 29.2716 84.4768 28.2009 85.5475C27.1303 86.6182 26.4011 87.9823 26.1057 89.4673C25.8103 90.9524 25.962 92.4917 26.5414 93.8906C27.1208 95.2895 28.1021 96.4851 29.361 97.3263ZM69.2951 97.3263C70.5541 98.1676 72.0342 98.6166 73.5484 98.6166C75.5788 98.6166 77.526 97.81 78.9617 96.3743C80.3975 94.9385 81.204 92.9913 81.204 90.9609C81.204 89.4467 80.755 87.9666 79.9138 86.7076C79.0726 85.4487 77.877 84.4674 76.4781 83.888C75.0792 83.3085 73.5399 83.1569 72.0548 83.4523C70.5698 83.7477 69.2057 84.4768 68.135 85.5475C67.0643 86.6182 66.3352 87.9823 66.0398 89.4673C65.7444 90.9524 65.896 92.4917 66.4754 93.8906C67.0549 95.2895 68.0361 96.4851 69.2951 97.3263Z" fill="white" stroke="#25335D" stroke-width="2"/>
<path d="M40.3315 7.5C40.433 7.5 40.132 7.55939 40.0409 7.61702C39.6418 7.86947 39.2809 8.21634 38.9231 8.5532C38.1212 9.30827 37.4387 10.1173 37.0383 11.3041C36.9298 11.6255 36.8948 11.9317 36.8496 12.2727C36.8336 12.3937 36.7931 12.4727 36.8804 12.496C37.2636 12.5981 37.6251 13.0584 37.9255 13.3547C38.2502 13.6749 38.7307 13.4044 39.0363 13.1333C39.4047 12.8065 39.5982 12.2638 39.8313 11.7884C40.096 11.2486 40.3377 10.6778 40.5243 10.0853C40.6454 9.70091 41.0562 8.65051 40.6529 8.34256C40.265 8.04636 39.65 8.56381 39.3395 8.80345C38.8248 9.20068 38.4747 9.73854 38.1183 10.3517C37.9367 10.6643 37.7722 11.1027 37.5147 11.3239" stroke="#25335D" stroke-width="2" stroke-linecap="round"/>
</svg>
