<svg width="62" height="92" viewBox="0 0 62 92" fill="none" xmlns="http://www.w3.org/2000/svg">
<path d="M1.00288 85.4185H1.00279V86.2503C1.00279 88.8737 3.12947 91.0003 5.75282 91.0003C8.37617 91.0003 10.5028 88.8737 10.5028 86.2503V85.197C10.3256 74.6203 18.1324 65.6023 28.6264 64.2632L28.6403 64.2614L28.6543 64.26C39.7503 63.1598 49.6375 71.2629 50.7378 82.359C50.8028 83.0149 50.8357 83.6736 50.8363 84.3329V84.3338V86.2503C50.8363 88.8737 52.963 91.0003 55.5863 91.0003C58.2097 91.0003 60.3364 88.8737 60.3364 86.2503V84.3347C60.3183 67.9311 47.0059 54.6482 30.6025 54.6662L1.00288 85.4185ZM1.00288 85.4185L1.0027 85.4053M1.00288 85.4185L1.0027 85.4053M1.0027 85.4053C0.792779 69.5298 12.8368 56.1679 28.6476 54.7328M1.0027 85.4053L28.6476 54.7328M28.6476 54.7328C29.2982 54.6892 29.9501 54.667 30.6023 54.6662L28.6476 54.7328Z" fill="white" stroke="#25335D" stroke-width="2"/>
<path d="M52.6682 23.0001C52.6682 35.15 42.8189 44.9997 30.6691 45.0002C18.5234 44.988 8.68026 35.1452 8.66797 22.9996C8.66824 10.8496 18.518 1 30.6681 1C42.8183 1 52.6682 10.8499 52.6682 23.0001ZM43.1681 23.0001C43.1681 16.0966 37.5716 10.5001 30.6681 10.5001C23.7645 10.5001 18.168 16.0966 18.168 23.0001C18.168 29.9037 23.7645 35.5002 30.6681 35.5002C37.5716 35.5002 43.1681 29.9037 43.1681 23.0001Z" fill="white" stroke="#25335D" stroke-width="2"/>
</svg>
